<svg width="16" height="12" viewBox="0 0 16 12" fill="none" xmlns="http://www.w3.org/2000/svg">
<g id="Frame" clip-path="url(#clip0_218_2006)">
<path id="Vector" d="M1.25023 11.0479V9.54785H14.7502V11.0479H1.25023ZM15.1402 2.44785C15.0536 2.20119 14.9069 2.00452 14.7002 1.85785C14.4869 1.70452 14.2502 1.62785 13.9902 1.62785C13.9236 1.62785 13.8569 1.63119 13.7902 1.63785C13.7302 1.65119 13.6636 1.66452 13.5902 1.67785H13.6102L10.2502 2.79785L4.26023 0.547852L2.74023 1.30785L7.24023 4.29785L4.26023 5.80785L1.25023 4.29785L0.490234 5.04785L3.50023 8.05785L14.4202 3.96785C14.6402 3.86785 14.8236 3.72119 14.9702 3.52785C15.1169 3.32785 15.1902 3.09785 15.1902 2.83785C15.1902 2.76452 15.1836 2.69785 15.1702 2.63785C15.1569 2.57119 15.1469 2.50452 15.1402 2.43785V2.44785Z" fill="black"/>
</g>
<defs>
<clipPath id="clip0_218_2006">
<rect width="14.6953" height="10.4941" fill="white" transform="translate(0.494141 0.552734)"/>
</clipPath>
</defs>
</svg>
