<svg width="13" height="16" viewBox="0 0 13 16" fill="none" xmlns="http://www.w3.org/2000/svg">
<g id="Frame" clip-path="url(#clip0_218_2020)">
<path id="Vector" d="M11.3997 0.294922H2.39967C1.98633 0.294922 1.63633 0.441589 1.34967 0.734922C1.05633 1.02826 0.909668 1.38492 0.909668 1.80492V14.5449C0.909668 14.7583 0.983001 14.9383 1.12967 15.0849C1.27633 15.2316 1.44633 15.3049 1.63967 15.3049H12.1597C12.353 15.3049 12.523 15.2316 12.6697 15.0849C12.8163 14.9383 12.8897 14.7583 12.8897 14.5449V1.80492C12.8897 1.38492 12.743 1.02826 12.4497 0.734922C12.163 0.441589 11.813 0.294922 11.3997 0.294922ZM11.3997 1.80492V13.7949H2.39967V1.80492H11.3997ZM3.88967 4.79492V3.29492H6.13967V4.79492H3.88967ZM7.65967 4.79492V3.29492H9.90967V4.79492H7.65967ZM3.88967 7.79492V6.30492H6.13967V7.79492H3.88967ZM7.65967 7.79492V6.32492H9.90967V7.79492H7.65967ZM3.88967 10.8049V9.29492H6.13967V10.8049H3.88967ZM7.65967 10.8049V9.29492H9.90967V10.8049H7.65967Z" fill="black"/>
</g>
<defs>
<clipPath id="clip0_218_2020">
<rect width="11.9883" height="15.0117" fill="white" transform="translate(0.905762 0.293945)"/>
</clipPath>
</defs>
</svg>
