<svg width="16" height="13" viewBox="0 0 16 13" fill="none" xmlns="http://www.w3.org/2000/svg">
<g id="Frame" clip-path="url(#clip0_218_2013)">
<path id="Vector" d="M13.6025 0.804688H1.62254C1.19587 0.804688 0.835872 0.951354 0.542539 1.24469C0.249206 1.53802 0.102539 1.88802 0.102539 2.29469V11.2947C0.102539 11.708 0.249206 12.0614 0.542539 12.3547C0.835872 12.648 1.19587 12.7947 1.62254 12.7947H13.6025C14.0292 12.7947 14.3892 12.648 14.6825 12.3547C14.9759 12.0614 15.1225 11.708 15.1225 11.2947V2.29469C15.1225 1.88802 14.9759 1.53802 14.6825 1.24469C14.3892 0.951354 14.0292 0.804688 13.6025 0.804688ZM5.15254 3.79469C5.58587 3.79469 5.94254 3.93802 6.22254 4.22469C6.50254 4.51135 6.64254 4.87135 6.64254 5.30469C6.64254 5.72469 6.50254 6.07802 6.22254 6.36469C5.94254 6.65135 5.58587 6.79469 5.15254 6.79469C4.71921 6.79469 4.36254 6.65135 4.08254 6.36469C3.79587 6.07802 3.65254 5.72469 3.65254 5.30469C3.65254 4.87135 3.79587 4.51135 4.08254 4.22469C4.36254 3.93802 4.71921 3.79469 5.15254 3.79469ZM7.93254 9.80469H2.35254V9.45469C2.35254 8.94135 2.62921 8.46469 3.18254 8.02469C3.73587 7.58469 4.39254 7.36469 5.15254 7.36469C5.91254 7.36469 6.56587 7.58469 7.11254 8.02469C7.65921 8.46469 7.93254 8.94135 7.93254 9.45469V9.80469ZM12.8725 7.55469V9.04469H9.86254V7.55469H12.8725ZM12.8725 6.04469H9.10254V4.54469H12.8725V6.04469Z" fill="black"/>
</g>
<defs>
<clipPath id="clip0_218_2013">
<rect width="15.0117" height="11.9883" fill="white" transform="translate(0.106445 0.805664)"/>
</clipPath>
</defs>
</svg>
