<svg width="10" height="8" viewBox="0 0 10 8" fill="none" xmlns="http://www.w3.org/2000/svg">
<path d="M8.35984 0.830156C8.51984 0.670156 8.70984 0.590157 8.92984 0.590157C9.14984 0.590157 9.33984 0.670156 9.49984 0.830156C9.65984 0.990156 9.74984 1.19016 9.76984 1.43016C9.78984 1.67016 9.71984 1.87016 9.55984 2.03016L5.05984 7.61016C4.89984 7.81016 4.69984 7.91016 4.45984 7.91016C4.21984 7.91016 4.01984 7.83016 3.85984 7.67016L0.859844 4.67016C0.619844 4.47016 0.539844 4.20016 0.619844 3.86016C0.699844 3.52016 0.899844 3.31016 1.21984 3.23016C1.53984 3.15016 1.81984 3.23016 2.05984 3.47016L4.39984 5.87016L8.35984 0.830156Z" fill="#F1871C"/>
</svg>
