<svg width="31" height="31" viewBox="0 0 31 31" fill="none" xmlns="http://www.w3.org/2000/svg">
<g id="Layer_1">
<g id="Group">
<path id="Vector" d="M15.4199 0.780273C7.16992 0.780273 0.419922 7.53027 0.419922 15.7803C0.419922 24.0303 7.16992 30.7803 15.4199 30.7803C23.6699 30.7803 30.4199 24.0303 30.4199 15.7803C30.4199 7.53027 23.6699 0.780273 15.4199 0.780273ZM20.6699 9.78027C21.8699 9.78027 22.9199 10.8303 22.9199 12.0303C22.9199 13.2303 21.8699 14.2803 20.6699 14.2803C19.4699 14.2803 18.4199 13.2303 18.4199 12.0303C18.4199 10.8303 19.4699 9.78027 20.6699 9.78027ZM10.1699 9.78027C11.3699 9.78027 12.4199 10.8303 12.4199 12.0303C12.4199 13.2303 11.3699 14.2803 10.1699 14.2803C8.96992 14.2803 7.91992 13.2303 7.91992 12.0303C7.91992 10.8303 8.96992 9.78027 10.1699 9.78027ZM15.4199 24.7803C11.5199 24.7803 8.21992 22.2303 7.01992 18.7803H23.8199C22.6199 22.2303 19.3199 24.7803 15.4199 24.7803Z" fill="#F1871C"/>
<path id="Vector_2" d="M20.6699 14.2803C21.8699 14.2803 22.9199 13.2303 22.9199 12.0303C22.9199 10.8303 21.8699 9.78027 20.6699 9.78027C19.4699 9.78027 18.4199 10.8303 18.4199 12.0303C18.4199 13.2303 19.4699 14.2803 20.6699 14.2803Z" fill="white"/>
<path id="Vector_3" d="M10.1699 14.2803C11.3699 14.2803 12.4199 13.2303 12.4199 12.0303C12.4199 10.8303 11.3699 9.78027 10.1699 9.78027C8.96992 9.78027 7.91992 10.8303 7.91992 12.0303C7.91992 13.2303 8.96992 14.2803 10.1699 14.2803Z" fill="white"/>
<path id="Vector_4" d="M15.4195 24.7803C19.3195 24.7803 22.6195 22.2303 23.8195 18.7803H7.01953C8.21953 22.2303 11.5195 24.7803 15.4195 24.7803Z" fill="white"/>
</g>
</g>
</svg>
