<svg width="31" height="31" viewBox="0 0 31 31" fill="none" xmlns="http://www.w3.org/2000/svg">
<g id="Layer_1">
<g id="Group">
<path id="Vector" d="M21.0498 14.2803C22.2498 14.2803 23.2998 13.2303 23.2998 12.0303C23.2998 10.8303 22.2498 9.78027 21.0498 9.78027C19.8498 9.78027 18.7998 10.8303 18.7998 12.0303C18.7998 13.2303 19.8498 14.2803 21.0498 14.2803Z" fill="#6D6D6D"/>
<path id="Vector_2" d="M10.5498 14.2803C11.7498 14.2803 12.7998 13.2303 12.7998 12.0303C12.7998 10.8303 11.7498 9.78027 10.5498 9.78027C9.3498 9.78027 8.2998 10.8303 8.2998 12.0303C8.2998 13.2303 9.3498 14.2803 10.5498 14.2803Z" fill="#6D6D6D"/>
<path id="Vector_3" d="M15.7998 0.780273C7.5498 0.780273 0.799805 7.53027 0.799805 15.7803C0.799805 24.0303 7.5498 30.7803 15.7998 30.7803C24.0498 30.7803 30.7998 24.0303 30.7998 15.7803C30.7998 7.53027 24.0498 0.780273 15.7998 0.780273ZM21.0498 9.78027C22.2498 9.78027 23.2998 10.8303 23.2998 12.0303C23.2998 13.2303 22.2498 14.2803 21.0498 14.2803C19.8498 14.2803 18.7998 13.2303 18.7998 12.0303C18.7998 10.8303 19.8498 9.78027 21.0498 9.78027ZM10.5498 9.78027C11.7498 9.78027 12.7998 10.8303 12.7998 12.0303C12.7998 13.2303 11.7498 14.2803 10.5498 14.2803C9.3498 14.2803 8.2998 13.2303 8.2998 12.0303C8.2998 10.8303 9.3498 9.78027 10.5498 9.78027Z" fill="#D1D7DD"/>
<path id="Vector_4" d="M15.7994 16.8301C12.2369 16.8301 9.23691 19.1551 8.14941 22.3051H23.4494C22.3619 19.1551 19.3619 16.8301 15.7994 16.8301Z" fill="#6D6D6D"/>
</g>
</g>
</svg>
