<svg width="31" height="31" viewBox="0 0 31 31" fill="none" xmlns="http://www.w3.org/2000/svg">
<g id="Layer_1">
<g id="Group">
<path id="Vector" d="M20.3604 14.2803C21.5604 14.2803 22.6104 13.2303 22.6104 12.0303C22.6104 10.8303 21.5604 9.78027 20.3604 9.78027C19.1604 9.78027 18.1104 10.8303 18.1104 12.0303C18.1104 13.2303 19.1604 14.2803 20.3604 14.2803Z" fill="#6D6D6D"/>
<path id="Vector_2" d="M9.86035 14.2803C11.0604 14.2803 12.1104 13.2303 12.1104 12.0303C12.1104 10.8303 11.0604 9.78027 9.86035 9.78027C8.66035 9.78027 7.61035 10.8303 7.61035 12.0303C7.61035 13.2303 8.66035 14.2803 9.86035 14.2803Z" fill="#6D6D6D"/>
<path id="Vector_3" d="M15.1104 0.780273C6.86035 0.780273 0.110352 7.53027 0.110352 15.7803C0.110352 24.0303 6.86035 30.7803 15.1104 30.7803C23.3604 30.7803 30.1104 24.0303 30.1104 15.7803C30.1104 7.53027 23.3604 0.780273 15.1104 0.780273ZM20.3604 9.78027C21.5604 9.78027 22.6104 10.8303 22.6104 12.0303C22.6104 13.2303 21.5604 14.2803 20.3604 14.2803C19.1604 14.2803 18.1104 13.2303 18.1104 12.0303C18.1104 10.8303 19.1604 9.78027 20.3604 9.78027ZM9.86035 9.78027C11.0604 9.78027 12.1104 10.8303 12.1104 12.0303C12.1104 13.2303 11.0604 14.2803 9.86035 14.2803C8.66035 14.2803 7.61035 13.2303 7.61035 12.0303C7.61035 10.8303 8.66035 9.78027 9.86035 9.78027Z" fill="#D1D7DD"/>
<path id="Vector_4" d="M22.0103 22.2678H8.2103C8.0228 22.2678 7.8728 22.1178 7.8728 21.9303V19.2678C7.8728 19.0803 8.0228 18.9303 8.2103 18.9303H22.0103C22.1978 18.9303 22.3478 19.0803 22.3478 19.2678V21.9303C22.3478 22.1178 22.1978 22.2678 22.0103 22.2678Z" fill="#6D6D6D"/>
</g>
</g>
</svg>
