<svg width="20" height="20" viewBox="0 0 20 20" fill="none" xmlns="http://www.w3.org/2000/svg">
<g clip-path="url(#clip0_63_1955)">
<path d="M18.7217 1.55514e-06H0.890653C0.736405 -0.000274494 0.585077 0.0420489 0.453352 0.122305C0.321627 0.202562 0.214623 0.317634 0.144136 0.454835C0.0726646 0.593977 0.0410055 0.750154 0.0526499 0.906144C0.0642944 1.06213 0.11879 1.21188 0.210128 1.33887L6.74268 10.5412C6.74486 10.5444 6.74725 10.5473 6.74943 10.5505C6.98676 10.871 7.11519 11.2591 7.11589 11.658V19.1605C7.11518 19.2705 7.13623 19.3796 7.17784 19.4814C7.21944 19.5832 7.28078 19.6758 7.35832 19.7538C7.43585 19.8318 7.52805 19.8937 7.62961 19.936C7.73117 19.9782 7.84008 19.9999 7.95007 19.9999C8.06312 19.9999 8.17475 19.9773 8.27901 19.9341L11.9498 18.5343C12.2788 18.434 12.4971 18.1237 12.4971 17.7499V11.658C12.4977 11.2592 12.6261 10.8711 12.8633 10.5505C12.8655 10.5473 12.8679 10.5444 12.8701 10.5412L19.4024 1.33846C19.4938 1.21156 19.5483 1.06189 19.5599 0.905971C19.5716 0.750053 19.5399 0.593949 19.4684 0.454886C19.3979 0.317652 19.2909 0.202556 19.1591 0.122289C19.0274 0.0420224 18.876 -0.000295686 18.7217 1.55514e-06ZM12.0447 9.94909C11.6799 10.4443 11.4826 11.0429 11.4814 11.658V17.6265L8.13109 18.9039V11.658C8.12995 11.0429 7.93252 10.4442 7.56752 9.94909L1.22559 1.01526H18.3869L12.0447 9.94909Z" fill="black"/>
</g>
<defs>
<clipPath id="clip0_63_1955">
<rect width="20" height="20" fill="white"/>
</clipPath>
</defs>
</svg>
